<svg width="20" height="20" viewBox="0 0 20 20" fill="none" xmlns="http://www.w3.org/2000/svg">
<path d="M8.51888 15.2112H9.64724L7.8144 12.8948L9.54575 11.0321H8.47112L6.62037 12.9843V11.0321H5.65918V15.2112H6.62037V14.1545L7.18157 13.5694L8.51888 15.2112Z" fill="#D20729"/>
<path d="M12.7508 14.2799C12.506 14.4112 12.2612 14.459 11.9985 14.459C11.1985 14.459 10.6433 13.9037 10.6433 13.1216C10.6433 12.3276 11.1985 11.7843 12.0105 11.7843C12.4344 11.7843 12.7866 11.9336 13.0911 12.256L13.712 11.6828C13.306 11.2112 12.6971 10.9604 11.9627 10.9604C10.6314 10.9604 9.66422 11.8619 9.66422 13.1216C9.66422 14.3813 10.6314 15.2828 11.9448 15.2828C12.5418 15.2828 13.1747 15.0978 13.6344 14.7515V13.056H12.7508V14.2799Z" fill="#D20729"/>
<path fill-rule="evenodd" clip-rule="evenodd" d="M3.94528 6.85303H15.3663L19.2023 19.3903H0.285645L3.94528 6.85303ZM4.8406 8.04706L1.87804 18.1963H17.5883L14.4829 8.04706H4.8406Z" fill="#4D4B4B"/>
<path fill-rule="evenodd" clip-rule="evenodd" d="M9.53969 5.65878C10.6937 5.65878 11.6292 4.72325 11.6292 3.56923C11.6292 2.4152 10.6937 1.47967 9.53969 1.47967C8.38566 1.47967 7.45013 2.4152 7.45013 3.56923C7.45013 4.72325 8.38566 5.65878 9.53969 5.65878ZM9.53969 6.85281C11.3532 6.85281 12.8233 5.3827 12.8233 3.56923C12.8233 1.75575 11.3532 0.285645 9.53969 0.285645C7.72621 0.285645 6.2561 1.75575 6.2561 3.56923C6.2561 5.3827 7.72621 6.85281 9.53969 6.85281Z" fill="#4D4B4B"/>
</svg>
